<svg width="50" height="50" viewBox="0 0 50 50" fill="none" xmlns="http://www.w3.org/2000/svg">
<path d="M25 0C11.1925 0 0 11.1925 0 25C0 38.8075 11.1925 50 25 50C38.8075 50 50 38.8075 50 25C50 11.1925 38.8075 0 25 0ZM25 47.5C12.5741 47.5 2.5 37.4267 2.5 25C2.5 12.5733 12.5741 2.5 25 2.5C37.4259 2.5 47.5 12.5741 47.5 25C47.5 37.4259 37.4259 47.5 25 47.5Z" fill="#2A293D"/>
<path d="M37.5 23.75H26.25V12.5C26.25 11.81 25.69 11.25 25 11.25C24.31 11.25 23.75 11.81 23.75 12.5V23.75H12.5C11.81 23.75 11.25 24.31 11.25 25C11.25 25.69 11.81 26.25 12.5 26.25H23.75V37.5C23.75 38.19 24.31 38.75 25 38.75C25.69 38.75 26.25 38.19 26.25 37.5V26.25H37.5C38.19 26.25 38.75 25.69 38.75 25C38.75 24.31 38.19 23.75 37.5 23.75Z" fill="#2A293D"/>
</svg>
