<svg width="50" height="50" viewBox="0 0 50 50" fill="none" xmlns="http://www.w3.org/2000/svg">
<g clip-path="url(#clip0_216_2)">
<path d="M49.6991 26.2284L44.3086 21.3467V9.70152C44.3086 9.1997 43.9016 8.79373 43.4008 8.79373H38.6555C38.4145 8.79373 38.183 8.8886 38.012 9.05975C37.8409 9.23091 37.7453 9.46225 37.748 9.70424L37.7604 15.4157L26.0035 4.76679C25.6595 4.45569 25.1411 4.45296 24.7926 4.75886L0.308871 26.324C-0.00396217 26.5987 -0.0899107 27.0483 0.100563 27.4188C0.28856 27.7866 0.703441 27.9835 1.10767 27.8914L6.54968 26.6629V43.4458C6.54448 43.5922 6.54175 44.3492 7.08964 44.9181C7.33263 45.168 7.76782 45.4685 8.46903 45.4685C9.77733 45.4685 20.6125 45.4551 20.6125 45.4551C21.1151 45.4551 21.5193 45.0482 21.5203 44.5473L21.5344 34.5136C21.5255 34.3967 21.5468 34.0997 21.6675 33.9675C21.7489 33.8805 21.9236 33.8602 22.0531 33.8602H27.0944C27.3205 33.8602 27.6261 33.8966 27.7832 34.0596C27.9561 34.237 27.9533 34.5453 27.9506 34.5931L27.9276 44.5151C27.9276 44.7554 28.0215 44.9867 28.1926 45.1586C28.3628 45.3288 28.5968 45.4264 28.8361 45.4264H40.726C41.5345 45.4264 42.0308 45.0851 42.302 44.8005C42.9359 44.1409 42.9146 43.2368 42.9111 43.1746V26.3889L48.8832 27.7859C49.2901 27.8825 49.7023 27.6893 49.8965 27.3232C50.0892 26.9571 50.0077 26.5075 49.6991 26.2284ZM39.567 10.61H42.494V19.7015L39.5812 17.0634L39.567 10.61ZM42.2087 24.3588C41.9409 24.2949 41.6538 24.3588 41.4383 24.5317C41.2221 24.7036 41.0943 24.9662 41.0943 25.2436V43.1977C41.0943 43.2952 41.0589 43.4751 40.9905 43.5452C40.9348 43.6002 40.8018 43.6073 40.7255 43.6073H29.7459L29.7654 34.6585C29.7734 34.5496 29.8194 33.5771 29.1192 32.8254C28.7834 32.4699 28.1636 32.0444 27.0929 32.0444H22.0516C21.1466 32.0444 20.6076 32.4301 20.3151 32.7526C19.6919 33.4431 19.7025 34.3685 19.7184 34.6283L19.7043 43.64C17.0716 43.6428 9.54475 43.6524 8.46754 43.6524C8.43485 43.6524 8.41429 43.6507 8.40116 43.6507C8.39943 43.6507 8.3967 43.6507 8.39497 43.6507C8.37813 43.6143 8.36574 43.5452 8.36574 43.4832V25.5274C8.36574 25.2518 8.23818 24.9902 8.02368 24.8173C7.80745 24.6454 7.52459 24.5825 7.25683 24.641L4.1773 25.336L25.3828 6.65864L37.7639 17.8713V17.9253H37.8223L45.8747 25.2191L42.2087 24.3588Z" fill="#2A293D"/>
</g>
<defs>
<clipPath id="clip0_216_2">
<rect width="50" height="50" fill="white"/>
</clipPath>
</defs>
</svg>
