<svg width="50" height="50" viewBox="0 0 50 50" fill="none" xmlns="http://www.w3.org/2000/svg">
<g clip-path="url(#clip0_216_27)">
<path d="M16.1 8.44428H47.6349C48.941 8.44428 50 7.38534 50 6.07917C50 4.77299 48.941 3.71405 47.6349 3.71405H16.1C14.7938 3.71405 13.7349 4.77299 13.7349 6.07917C13.7349 7.38534 14.7938 8.44428 16.1 8.44428Z" fill="#2A293D"/>
<path d="M47.6349 13.1745H16.1C14.7938 13.1745 13.7349 14.2334 13.7349 15.5396C13.7349 16.8458 14.7938 17.9047 16.1 17.9047H47.6349C48.941 17.9047 50 16.8458 50 15.5396C50 14.2334 48.9412 13.1745 47.6349 13.1745Z" fill="#2A293D"/>
<path d="M47.6349 22.635H16.1C14.7938 22.635 13.7349 23.6939 13.7349 25.0001C13.7349 26.3063 14.7938 27.3652 16.1 27.3652H47.6349C48.941 27.3652 50 26.3063 50 25.0001C50 23.6938 48.9412 22.635 47.6349 22.635Z" fill="#2A293D"/>
<path d="M47.6349 41.5559H16.1C14.7938 41.5559 13.7349 42.6148 13.7349 43.921C13.7349 45.2272 14.7938 46.2861 16.1 46.2861H47.6349C48.941 46.2861 50 45.2272 50 43.921C50 42.6148 48.9412 41.5559 47.6349 41.5559Z" fill="#2A293D"/>
<path d="M47.6349 32.0955H16.1C14.7938 32.0955 13.7349 33.1544 13.7349 34.4606C13.7349 35.7668 14.7938 36.8257 16.1 36.8257H47.6349C48.941 36.8257 50 35.7668 50 34.4606C50 33.1542 48.9412 32.0955 47.6349 32.0955Z" fill="#2A293D"/>
<path d="M2.81102 7.73175V13.6546C2.81102 14.297 3.3345 14.7814 4.0289 14.7814C4.71163 14.7814 5.24631 14.2864 5.24631 13.6546V4.79727C5.24631 4.17288 4.73434 3.68378 4.08078 3.68378C3.50574 3.68378 3.21814 4.06961 3.12369 4.19638C3.11975 4.20174 3.11581 4.2071 3.11202 4.21246L2.08304 5.66827C1.88327 5.88554 1.70557 6.23306 1.70557 6.56638C1.70541 7.20181 2.19956 7.72009 2.81102 7.73175Z" fill="#2A293D"/>
<path d="M1.20308 30.5488H5.83965C6.44654 30.5488 6.94038 30.0141 6.94038 29.3569C6.94038 28.7067 6.4467 28.1777 5.83965 28.1777H2.47299V28.1585C2.47299 27.8043 3.28469 27.2317 3.93699 26.7714C5.2345 25.8558 6.84924 24.7164 6.84924 22.7404C6.84924 20.8652 5.39611 19.4514 3.46902 19.4514C1.62375 19.4514 0.232433 20.7197 0.232433 22.4016C0.232433 23.3776 0.867703 23.724 1.41168 23.724C2.19028 23.724 2.65557 23.1444 2.65557 22.584C2.65557 22.2356 2.74513 21.8357 3.443 21.8357C4.38574 21.8357 4.41286 22.6711 4.41286 22.7663C4.41286 23.5172 3.43843 24.219 2.49601 24.8979C1.33111 25.7369 0.0107422 26.688 0.0107422 28.1586V29.4218C0.0105845 30.096 0.627249 30.5488 1.20308 30.5488Z" fill="#2A293D"/>
<path d="M6.69281 38.2807C6.69281 36.3347 5.54368 35.2187 3.54026 35.2187C0.913408 35.2187 0.219325 37.0947 0.219325 38.0866C0.219325 39.2416 1.07786 39.3662 1.44698 39.3662C2.16582 39.3662 2.64862 38.8832 2.64862 38.1644C2.64862 37.888 2.747 37.5706 3.51378 37.5706C4.06485 37.5706 4.28922 37.6499 4.28922 38.4485C4.28922 39.2287 4.12177 39.3137 3.46222 39.3137C2.82868 39.3137 2.35108 39.8135 2.35108 40.4765C2.35108 41.1323 2.83451 41.6267 3.47546 41.6267C4.34661 41.6267 4.52163 41.9824 4.52163 42.5565V42.8022C4.52163 43.7681 4.14495 43.9513 3.44976 43.9513C2.49063 43.9513 2.41605 43.4573 2.41605 43.306C2.41605 42.7335 2.03652 42.1559 1.18855 42.1559C0.444327 42.1559 0 42.6198 0 43.3966C0 44.8119 1.21346 46.3161 3.46222 46.3161C5.64664 46.3161 6.95092 45.0025 6.95092 42.8022V42.5565C6.95092 41.6543 6.66238 40.9065 6.12092 40.3687C6.49177 39.8321 6.69281 39.1161 6.69281 38.2807Z" fill="#2A293D"/>
</g>
<defs>
<clipPath id="clip0_216_27">
<rect width="50" height="50" fill="white"/>
</clipPath>
</defs>
</svg>
