<svg width="50" height="50" viewBox="0 0 50 50" fill="none" xmlns="http://www.w3.org/2000/svg">
<path d="M33.8001 10.05C32.3501 10.05 31.1001 11.1 30.6001 12.55C32.5001 13.4 33.9501 15.25 34.4501 17.5C36.0001 17.15 37.1501 15.65 37.1501 13.85C37.1501 11.7 35.6501 10.05 33.8001 10.05Z" fill="#4338CA"/>
<path d="M36.8999 18.95C36.2499 19.55 35.4499 19.95 34.5499 20.1C34.3999 21.45 33.8999 22.7 33.1499 23.7H38.6999C39.3999 23.7 39.9499 23.15 39.9499 22.45V21.85C39.9499 20.5 38.4499 19.65 36.8999 18.95Z" fill="#4338CA"/>
<path d="M31.6 25C30.6 25.9 29.35 26.45 28 26.45C27.9 28 27.45 29.4 26.75 30.6H33.75C34.55 30.6 35.25 29.95 35.25 29.1V28.5C35.2 26.85 33.4 25.85 31.6 25Z" fill="#4338CA"/>
<path d="M25.15 32.6C23.75 34 21.85 34.8 19.85 34.8C17.8 34.8 15.9 33.95 14.5 32.5C12.2 33.6 10 35 10 37.05V38C10 39.1 10.9 39.95 11.95 39.95H27.6C28.7 39.95 29.55 39.05 29.55 38V37.1C29.55 35 27.45 33.65 25.15 32.6Z" fill="#4338CA"/>
<path d="M19.8002 31.7C22.7549 31.7 25.1502 29.0585 25.1502 25.8C25.1502 22.5415 22.7549 19.9 19.8002 19.9C16.8455 19.9 14.4502 22.5415 14.4502 25.8C14.4502 29.0585 16.8455 31.7 19.8002 31.7Z" fill="#4338CA"/>
<path d="M27.85 14.75C26 14.75 24.45 16.1 24 18C25.85 19.2 27.2 21.25 27.75 23.6C27.8 23.6 27.8 23.6 27.85 23.6C30.05 23.6 31.85 21.6 31.85 19.15C31.9 16.75 30.1 14.75 27.85 14.75Z" fill="#4338CA"/>
</svg>
